
<svg width="901px" height="225px" viewBox="0 0 901 225" version="1.1" xmlns="http://www.w3.org/2000/svg" xmlns:xlink="http://www.w3.org/1999/xlink">
    <defs>
        <polygon id="path-guaxlktxs7-1" points="0 224.852 900.323 224.852 900.323 0 0 0"></polygon>
    </defs>
    <g id="Page-1" stroke="none" stroke-width="1" fill="none" fill-rule="evenodd">
        <g id="hass_logo">
            <path d="M282.0138,122.1593 L257.3138,137.2103 L256.2298,139.2073 L318.1478,9.4013 L371.6938,131.4783 C334.9048,147.2373 282.0138,122.1593 282.0138,122.1593 L282.0138,122.1593 Z M314.8368,1.8523 L314.8438,1.8683 L313.1298,1.8683 L207.6488,223.0003 L216.2598,223.0003 L249.8608,152.5593 L270.8448,138.9513 C270.8448,138.9513 329.8488,162.5633 376.1788,141.7023 L411.8378,223.0003 L435.0878,223.0003 L338.0868,1.8523 L314.8368,1.8523 Z" id="Fill-1" fill="#2E2E2E"></path>
            <mask id="mask-guaxlktxs7-2" fill="white">
                <use xlink:href="#path-guaxlktxs7-1"></use>
            </mask>
            <g id="Clip-4"></g>
            <polygon id="Fill-3" fill="#2E2E2E" mask="url(#mask-guaxlktxs7-2)" points="171.611 223.23 190.003 223.23 190.003 1.163 171.611 1.163"></polygon>
            <path d="M171.4167,113.2804 C171.3617,111.8094 171.3517,110.3514 171.3867,108.9054 L18.3917,108.8134 L18.3917,1.6224 L-0.0003,1.6224 L-0.0003,223.6894 L18.3917,223.6894 L18.3917,116.4114 L171.6107,116.5044 C171.5327,115.4284 171.4647,114.3534 171.4167,113.2804" id="Fill-5" fill="#2E2E2E" mask="url(#mask-guaxlktxs7-2)"></path>
            <path d="M575.472,97.8271 C541.927,95.5701 507.462,95.6141 477.219,79.3031 C470.837,75.8611 465.388,71.0361 461.226,65.2531 C457.56,55.9331 458.803,45.8161 463.78,38.9591 C469.915,30.5081 480.047,27.1641 489.868,24.4181 C530.454,13.0721 579.218,15.2601 617.738,32.6101 C638.567,41.9911 648.811,52.5941 648.91,52.6991 L653.325,57.3531 L652.653,29.8911 C652.653,29.8911 651.814,29.2061 651.813,29.2051 C623.483,6.0941 580.495,-0.8809 544.434,0.0871 C510.237,1.0041 468.693,12.8501 456.632,47.6061 C452.897,58.3701 451.889,69.2581 455.719,80.3091 C465.497,108.5221 497.77,112.5221 521.425,115.2421 C556.694,119.2981 596.991,118.2661 629.365,133.7661 C648.284,142.8241 653.694,156.6701 654.003,157.4951 C659.483,172.1521 651.148,185.5471 638.122,193.0261 C620.069,203.3921 594.312,206.0751 573.945,206.5351 C550.59,207.0621 526.959,203.6511 504.892,196.2371 C483.865,189.1731 466.305,177.5441 448.531,164.9271 C448.575,164.9581 448.452,164.8711 448.452,164.8711 L448.747,191.3771 C448.747,191.3771 449.62,192.0741 449.621,192.0751 C494.652,228.0251 562.444,233.1841 615.713,213.5021 C639.875,204.5751 658.617,183.9921 662.387,158.9881 L662.419,158.9941 C662.419,158.9941 666.731,138.5331 655.741,126.9851 C636.298,104.3981 604.117,99.7541 575.472,97.8271" id="Fill-6" fill="#2E2E2E" mask="url(#mask-guaxlktxs7-2)"></path>
            <path d="M892.8113,126.985 C873.3683,104.398 841.1873,99.754 812.5423,97.827 C778.9973,95.57 744.5323,95.614 714.2893,79.303 C707.9073,75.861 702.4583,71.036 698.2963,65.253 C694.6303,55.933 695.8733,45.816 700.8503,38.959 C706.9853,30.508 717.1173,27.164 726.9383,24.418 C767.5243,13.072 816.2883,15.26 854.8083,32.61 C875.6373,41.991 885.8813,52.594 885.9803,52.699 L890.3953,57.353 L889.7233,29.891 C889.7233,29.891 888.8843,29.206 888.8833,29.205 C860.5533,6.094 817.5653,-0.881 781.5043,0.087 C747.3073,1.004 705.7633,12.85 693.7023,47.606 C689.9673,58.37 688.9593,69.258 692.7893,80.309 C702.5673,108.522 734.8403,112.522 758.4953,115.242 C793.7643,119.298 834.0613,118.266 866.4353,133.766 C885.3543,142.824 890.7643,156.67 891.0733,157.495 C896.5533,172.152 888.2183,185.547 875.1923,193.026 C857.1393,203.392 831.3823,206.075 811.0153,206.535 C787.6613,207.062 764.0293,203.651 741.9623,196.237 C720.9353,189.173 703.3753,177.544 685.6013,164.927 C685.6453,164.958 685.5223,164.871 685.5223,164.871 L685.8173,191.377 C685.8173,191.377 686.6903,192.074 686.6913,192.075 C731.7223,228.025 799.5143,233.184 852.7833,213.502 C876.9453,204.575 895.6873,183.992 899.4573,158.988 L899.4893,158.994 C899.4893,158.994 903.8013,138.533 892.8113,126.985" id="Fill-7" fill="#2E2E2E" mask="url(#mask-guaxlktxs7-2)"></path>
        </g>
    </g>
</svg>